<?xml version="1.0" standalone="no"?>
<!DOCTYPE svg PUBLIC "-//W3C//DTD SVG 20010904//EN"
 "http://www.w3.org/TR/2001/REC-SVG-20010904/DTD/svg10.dtd">
<svg version="1.0" xmlns="http://www.w3.org/2000/svg"
 width="429.000000pt" height="429.000000pt" viewBox="0 0 429.000000 429.000000"
 preserveAspectRatio="xMidYMid meet">
<metadata>
Created by potrace 1.14, written by Peter Selinger 2001-2017
</metadata>
<g transform="translate(0.000000,429.000000) scale(0.100000,-0.100000)"
fill="#000000" stroke="none">
<path d="M1950 4283 c-95 -10 -286 -47 -383 -73 -260 -72 -537 -211 -732 -367
-269 -215 -471 -461 -610 -743 -103 -211 -179 -462 -208 -685 -15 -112 -16
-445 -2 -535 58 -389 196 -730 409 -1014 79 -105 104 -133 207 -236 154 -153
250 -228 424 -333 157 -94 459 -214 609 -243 12 -2 32 -6 46 -9 126 -29 279
-42 460 -39 218 3 230 4 404 39 109 22 305 79 361 104 11 6 60 28 108 50 375
171 707 465 928 822 131 210 249 520 285 743 3 21 8 48 10 60 25 127 26 486 0
636 -25 149 -24 146 -50 244 -40 152 -134 376 -218 521 -199 344 -515 642
-878 831 -49 25 -175 82 -200 89 -14 4 -38 13 -55 20 -69 30 -289 86 -395 101
-30 4 -64 9 -75 11 -30 5 -405 10 -445 6z"/>
</g>
</svg>
